<svg width="1200" height="630" viewBox="0 0 1200 630" xmlns="http://www.w3.org/2000/svg">
  <defs>
    <radialGradient id="bg" cx="20%" cy="0%" r="120%">
      <stop offset="0%" stop-color="#5C2450"/>
      <stop offset="45%" stop-color="#43173A"/>
      <stop offset="100%" stop-color="#2A0F23"/>
    </radialGradient>
  </defs>
  <rect width="1200" height="630" fill="url(#bg)"/>
  <text x="80" y="220" font-family="Georgia, serif" font-size="64" font-weight="700" fill="#F5EDE2">Kgaugelo Pertunia Mabote</text>
  <text x="80" y="270" font-family="Arial, sans-serif" font-size="28" fill="#E7CA84" font-weight="600">Data &amp; Business Analytics</text>
  <text x="80" y="320" font-family="'Courier New', monospace" font-size="20" fill="#D8C9D3">SQL &#8226; Python &#8226; Business Intelligence &#8226; Data Storytelling</text>
  <g fill="#43173A" opacity="0.9">
    <rect x="80" y="470" width="18" height="40" rx="3"/>
    <rect x="110" y="440" width="18" height="70" rx="3"/>
    <rect x="140" y="410" width="18" height="100" rx="3"/>
    <rect x="170" y="430" width="18" height="80" rx="3"/>
  </g>
  <path d="M 230 470 C 300 420, 340 500, 400 460 C 460 420, 500 500, 560 460 C 620 420, 660 500, 720 460 C 780 420, 820 500, 880 460 L1120 460" stroke="#B4536B" stroke-width="4" fill="none" opacity="0.9"/>
  <g fill="#C9963C">
    <rect x="1000" y="450" width="16" height="30" rx="3"/>
    <rect x="1026" y="420" width="16" height="60" rx="3"/>
    <rect x="1052" y="440" width="16" height="40" rx="3"/>
    <rect x="1078" y="400" width="16" height="80" rx="3"/>
  </g>
</svg>
